<svg xmlns="http://www.w3.org/2000/svg" xmlns:xlink="http://www.w3.org/1999/xlink" width="398.506" height="186.891" viewBox="0 0 398.506 186.891"><defs><clipPath id="a"><rect width="398.506" height="186.891" fill="none"/></clipPath></defs><g clip-path="url(#a)"><path d="M322.946,32.758c-.109-5.043,2.489-9.18,3.859-14.272.9-3.361-2.9-4.687-6.219-4.878-5.216-1.194-10.327,4.079-14.007,12.9-9.089,21.783-.015,53.54-5.1,65.618a18.759,18.759,0,0,1,4.214-1.07,36.383,36.383,0,0,1,4.481.1c2.242-17.362-4.867-40.186,3.8-60.954a9.719,9.719,0,0,1,1.961-3.021c0,.483,0,.957-.027,1.462-.854,27,18.8,64.2,19.077,77.156a5.6,5.6,0,0,1,2.671-.111c1.046-5.838,3.056-6.7,3.056-6.7-8.733-22.942-17.271-43.849-17.767-66.227" transform="translate(-13.202 -0.589)" fill="#00862d"/><path d="M172.625,168.135a.636.636,0,0,1,.525.71v1.539c0,.572-.238.71-.786.526a8.511,8.511,0,0,0-3.174-.55c-3.65,0-5.652,2.247-5.652,5.412,0,3.12,2.052,5.436,5.675,5.436a11.5,11.5,0,0,0,3.1-.368c.549-.136.836-.021.836.438v1.6a.645.645,0,0,1-.525.643,14.04,14.04,0,0,1-3.626.457c-4.7,0-8.943-2.453-8.943-8.188s4.1-8.209,8.8-8.209a11.59,11.59,0,0,1,3.768.55" transform="translate(-7.009 -7.338)" fill="#003372"/><path d="M194.924,174.011v-5.229c0-.872.214-1.078,1.1-1.078h1.169c.882,0,1.1.206,1.1,1.078V182.7c0,.849-.214,1.057-1.1,1.057h-1.169c-.883,0-1.1-.208-1.1-1.057v-5.8h-6.367v5.8c0,.849-.216,1.057-1.1,1.057h-1.168c-.884,0-1.1-.208-1.1-1.057V168.783c0-.872.214-1.078,1.1-1.078h1.168c.882,0,1.1.206,1.1,1.078v5.229Z" transform="translate(-8.109 -7.344)" fill="#003372"/><path d="M214.693,176.9v4.2h6.94c.883,0,1.122.228,1.122,1.077v.528c0,.848-.239,1.055-1.122,1.055h-9.182c-.883,0-1.1-.207-1.1-1.055V168.784c0-.872.214-1.08,1.1-1.08h8.778c.859,0,1.1.208,1.1,1.08v.5c0,.849-.237,1.077-1.1,1.077h-6.536v3.877h4.865c.883,0,1.1.206,1.1,1.054v.529c0,.848-.214,1.078-1.1,1.078Z" transform="translate(-9.255 -7.344)" fill="#003372"/><path d="M234.67,168.783c0-.872.214-1.078,1.1-1.078h4.6c2.74,0,6.486,1.078,6.486,5.068a4.455,4.455,0,0,1-3.221,4.5c1.6,1.6,1.766,4.013,3.626,4.013a2.209,2.209,0,0,0,.477-.045c.311-.024.572.159.572.733v1.1c0,.8-.977.872-1.739.872-4.844,0-4.15-6.17-7.251-6.17h-1.313v4.93c0,.848-.214,1.056-1.1,1.056h-1.146c-.884,0-1.1-.208-1.1-1.056Zm3.339,6.33h2.363c1.811,0,2.981-.827,2.981-2.34,0-1.49-1.146-2.269-2.981-2.269h-2.363Z" transform="translate(-10.276 -7.344)" fill="#003372"/><path d="M260.032,168.783c0-.872.214-1.078,1.1-1.078h4.6c2.741,0,6.487,1.078,6.487,5.068a4.455,4.455,0,0,1-3.221,4.5c1.6,1.6,1.766,4.013,3.626,4.013a2.209,2.209,0,0,0,.477-.045c.31-.024.572.159.572.733v1.1c0,.8-.977.872-1.739.872-4.844,0-4.151-6.17-7.251-6.17h-1.313v4.93c0,.848-.214,1.056-1.1,1.056h-1.146c-.883,0-1.1-.208-1.1-1.056Zm3.339,6.33h2.362c1.812,0,2.981-.827,2.981-2.34,0-1.49-1.146-2.269-2.981-2.269h-2.362Z" transform="translate(-11.387 -7.344)" fill="#003372"/><path d="M288.758,182.7c0,.849-.215,1.055-1.1,1.055h-1.169c-.882,0-1.1-.206-1.1-1.055V168.784c0-.872.215-1.08,1.1-1.08h1.169c.882,0,1.1.208,1.1,1.08Z" transform="translate(-12.497 -7.344)" fill="#003372"/><path d="M304.719,176.9v4.2h6.94c.883,0,1.121.228,1.121,1.077v.528c0,.848-.238,1.055-1.121,1.055h-9.182c-.883,0-1.1-.207-1.1-1.055V168.784c0-.872.214-1.08,1.1-1.08h8.776c.861,0,1.1.208,1.1,1.08v.5c0,.849-.237,1.077-1.1,1.077h-6.534v3.877h4.865c.883,0,1.1.206,1.1,1.054v.529c0,.848-.214,1.078-1.1,1.078Z" transform="translate(-13.197 -7.344)" fill="#003372"/><path d="M328.978,183.981a16.343,16.343,0,0,1-4.388-.574c-.454-.16-.691-.365-.691-1.076v-.666c0-.756.262-.894.906-.779a17.574,17.574,0,0,0,3.887.5c1.766,0,3.077-.435,3.077-2.156,0-1.742-1.694-1.857-3.768-2.386-1.909-.5-3.911-1.4-3.911-4.54,0-4.243,3.625-4.747,5.795-4.747a15.126,15.126,0,0,1,3.746.436c.667.137.786.319.786.9l-.023,1.1c0,.62-.359.641-.859.528a15.58,15.58,0,0,0-3.1-.389c-1.789,0-2.981.435-2.981,2.018,0,1.536,1.574,1.788,3.291,2.223,1.979.529,4.365,1.147,4.365,4.681,0,4.126-3.242,4.929-6.129,4.929" transform="translate(-14.183 -7.337)" fill="#003372"/><path d="M374.714,120.737c.393-11.806-5.531-22.9-18.472-23.294-8.667-.263-16.974,4.365-18.07,13.453-6.685.314-11.432,6.467-11.729,15.574a25.283,25.283,0,0,0,.888,7.559c-5.82,4.6-12.209,7.712-18.545,7.524-8.809-.271-12.893-9.9-12.586-19.522s5.028-19.118,13.571-18.86c3.6.108,6.591,2.641,9.88,8.137,4.47-1.794,6.251-3.024,6.3-4.695.15-4.488-7.963-9.742-16.366-10-17.615-.536-28.06,12.511-28.493,25.6-.4,12.579,7.6,25.155,24.947,25.676,8.9.272,17.017-3.5,23.569-8.476,3.71,6.254,10.427,10.242,18.787,10.333,11.747.228,19.406-7.194,23.649-16.755a31.4,31.4,0,0,0,2.668-12.255m-26.2,25.16c-5.728-.172-8.478-6.04-8.294-11.811.148-4.5,2.165-8.928,5.829-10.614a22.459,22.459,0,0,0,.523-3.84c.15-4.622-1.493-7.37-5.066-8.378,2.264-3.909,5.73-7.79,10.129-7.654,6.946.211,9.714,9.415,9.4,19.041-.37,11.422-5.043,23.483-12.518,23.257" transform="translate(-12.308 -4.23)" fill="#99002a"/><path d="M144.826,175.735c-2.551,9.1-8.265,13.87-15.022,12.714-14.27-3.033-25.84-29.765-36.507-46.382-4.957-7.512-9.614-15.607-14.87-19.941a118.631,118.631,0,0,1-23.59,2.169H51.682a178.917,178.917,0,0,0-2.107,27.165c0,10.261,1.505,18.638,4.361,24.994a49.987,49.987,0,0,1-12.469.867c-16.08-.867-10.671-21.524-7.521-36.555.908-5.492,2.1-11.125,3.314-17.777a15.922,15.922,0,0,1-2.558-.574c-8.11-1.881-13.067-4.626-13.22-7.083-.3-3.611,2.708-6.359,7.061-8.67A26.1,26.1,0,0,0,38.763,113.6c.6-3.753,1.2-7.655,1.649-12.133a73.094,73.094,0,0,0,.9-14.6c-.15-6.357-1.2-9.681-4.5-13.872,5.259-3.612,13.073-4.622,15.931-1.3,2.1,1.735,3.745,6.068,3.745,10.26,0,13.291-1.793,23.7-3.45,34.389h1.051c30.8,0,54.082-15.029,54.533-38.581,0-18.93-18.927-31.212-47.922-31.212-23.589,0-43.87,10.548-43.87,23.555,0,5.63,3.611,8.667,7.065,10.978a18.137,18.137,0,0,1-12.019,5.056C4.2,86.143,0,82.244,0,75.451,0,59.7,21.183,39.472,66.554,39.472c35.756,0,62.5,16.183,62.5,37.714,0,15.894-12.921,32.512-37.108,41.181,3.759,4.049,9.468,12.283,13.673,18.063,17.276,23.406,29.3,35.548,39.211,39.305" transform="translate(0 -1.728)" fill="#99002a"/><path d="M217.038,112.817c-1.349,4.481-19.38,31.645-34.845,31.645-6.921,0-9.771-4.479-10.525-11.411-4.509,9.966-16.224,19.214-25.839,19.214-10.217,0-17.734-7.8-17.734-18.637,0-20.088,16.229-37.427,35.162-37.427,8.709,0,18.323,6.213,20.434,12.858a76.326,76.326,0,0,0-2.411,17.05c0,6.794,2.259,10.846,6.454,10.846,6.318,0,17.887-13.006,25.7-24.281.745-1.009,4.2-1.733,3.6.143m-46.424-5.778c-.753-4.192-3.9-5.49-6.76-5.49-8.11,0-19.53,18.931-19.53,31.353,0,4.624,1.955,8.24,4.808,8.24,9.618,0,20.134-24.857,21.482-34.1" transform="translate(-5.609 -4.213)" fill="#99002a"/><path d="M251.559,109.821c0-3.175-.446-5.339-2.254-5.339-4.645,0-21.433,25.094-25.784,44.855a11.8,11.8,0,0,1-4.8.865c-10.347,0-11.253-7.354-11.253-17.018,0-10.529,1.206-18.463,1.206-25.961a48.061,48.061,0,0,0-1.206-10.815,16.633,16.633,0,0,1,9.6-3.461c4.8,0,7.5,2.881,7.5,8.22,0,4.472-1.348,18.75-.751,27.692,7.35-13.126,18.3-30.289,30.585-30.289,10.8,0,12.6,8.367,12.6,19.613,0,4.473-.605,13.56-.605,19.471,0,7.933.909,10.672,7.807,14.57-1.653,5.046-6.3,7.351-10.95,7.351-12.142,0-13.95-11.1-13.95-23.651,0-9.377,2.254-22.211,2.254-26.1" transform="translate(-9.085 -4.07)" fill="#99002a"/><path d="M221.5,66.524s.29-1.424.884-4.076a21.694,21.694,0,0,1,.594-2.21q.367-1.225.8-2.667a31.951,31.951,0,0,1,1.071-3.047c.422-1.064.812-2.232,1.34-3.41a79.669,79.669,0,0,1,9.3-16.239,84.631,84.631,0,0,1,7.5-8.859c1.417-1.479,2.98-2.889,4.548-4.372l2.511-2.093c.854-.7,1.685-1.45,2.614-2.087,1.827-1.321,3.66-2.723,5.666-3.944.991-.629,1.982-1.282,3.017-1.883q1.569-.865,3.167-1.749c.535-.291,1.062-.6,1.609-.878l1.671-.79q1.68-.785,3.389-1.579c1.164-.472,2.35-.911,3.538-1.37l1.792-.685.206-.076.11-.035.219-.071.442-.137.888-.273,1.781-.552c.594-.184,1.183-.376,1.848-.531l3.906-.965c2.6-.5,5.229-.993,7.915-1.3A96.012,96.012,0,0,1,310.236.142a111.065,111.065,0,0,1,16.675,2.174,125.107,125.107,0,0,1,16.5,4.543,111.632,111.632,0,0,1,30.779,16.569,92.547,92.547,0,0,1,12.995,12.225c1.951,2.262,3.773,4.633,5.491,7.07l1.24,1.861c.407.622.831,1.236,1.2,1.887.746,1.287,1.534,2.551,2.241,3.856.685,1.316,1.383,2.627,2.038,3.955q.911,2.024,1.817,4.042.792,2.02,1.581,4.03c.264.624.485,1.389.726,2.087l.7,2.136a87.876,87.876,0,0,1,3.507,16.99,82.242,82.242,0,0,1-3,32.6,88.906,88.906,0,0,1-5.6,14.124,97.18,97.18,0,0,1-7.354,12.078c-.667.913-1.356,1.8-2.02,2.679-.684.869-1.406,1.694-2.094,2.525-.347.412-.691.824-1.034,1.232q-.545.588-1.081,1.169-1.074,1.155-2.122,2.282c-1.481,1.422-2.847,2.879-4.346,4.113q-1.1.951-2.162,1.876-1.1.874-2.174,1.721a84.977,84.977,0,0,1-15.9,9.82l-1.7.812-1.636.688c-1.057.442-2.039.868-2.975,1.214-1.89.648-3.463,1.256-4.781,1.642l-4.035,1.139-.313-.861s1.281-.656,3.681-1.889c1.194-.616,2.627-1.458,4.32-2.394.836-.494,1.712-1.064,2.659-1.633l1.46-.892,1.5-1.022c2.06-1.381,4.277-2.988,6.6-4.829q.861-.7,1.756-1.439c.3-.243.6-.491.9-.74s.583-.531.881-.8c1.188-1.066,2.447-2.131,3.639-3.349q.908-.894,1.847-1.816.894-.961,1.813-1.955l.926-1c.295-.347.594-.7.892-1.051.6-.7,1.212-1.408,1.832-2.128A93.446,93.446,0,0,0,385,137.8a89.141,89.141,0,0,0,5.993-11.349,93.938,93.938,0,0,0,4.477-12.9,88.857,88.857,0,0,0,2.781-29.135A84.856,84.856,0,0,0,395.7,69.092l-.517-1.862c-.186-.63-.313-1.221-.56-1.9q-.658-1.928-1.318-3.87-.742-1.867-1.486-3.745-.833-1.845-1.666-3.695c-.576-1.229-1.228-2.417-1.841-3.636s-1.358-2.362-2.016-3.564c-1.382-2.362-2.869-4.682-4.491-6.92A86.976,86.976,0,0,0,370.92,27.226c-.99-1-2.053-1.918-3.112-2.845-.534-.459-1.048-.945-1.6-1.382l-1.653-1.314c-.56-.43-1.105-.88-1.676-1.293l-1.728-1.22c-.579-.4-1.147-.821-1.735-1.212l-1.785-1.136a79.5,79.5,0,0,0-15.149-7.361A77.444,77.444,0,0,0,326.376,5.5c-1.361-.157-2.712-.342-4.067-.437s-2.706-.172-4.051-.214l-4.018-.026c-1.336.046-2.661.117-3.977.185a98.219,98.219,0,0,0-15.273,2.348c-2.456.523-4.838,1.245-7.18,1.914l-3.391,1.1c-.548.163-1.145.378-1.729.6s-1.171.426-1.754.638a105,105,0,0,0-23.7,12.147c-.876.558-1.681,1.193-2.5,1.8l-2.414,1.8q-1.143.957-2.258,1.889c-.738.631-1.515,1.2-2.19,1.869a100.122,100.122,0,0,0-7.629,7.626,101.938,101.938,0,0,0-10.617,14.155c-.677,1.039-1.213,2.081-1.777,3.033-.54.964-1.094,1.854-1.512,2.712q-.666,1.285-1.229,2.375c-.384.724-.718,1.4-.993,2.021-1.129,2.473-1.758,3.782-1.758,3.782Z" transform="translate(-9.699 0)" fill="#003372"/></g></svg>